<?xml version="1.0" encoding="utf-8"?><svg xmlns="http://www.w3.org/2000/svg" xmlns:xlink="http://www.w3.org/1999/xlink" width="1224" height="902" preserveAspectRatio="xMidYMid" viewBox="0 0 1224 902" style="z-index:1;margin-right:-2px;display:block;background-repeat-y:initial;background-repeat-x:initial;background-color:rgb(255, 255, 255);animation-play-state:paused" ><g transform="translate(612,451) scale(1,1) translate(-612,-451)" style="transform:matrix(1, 0, 0, 1, 0, 0);animation-play-state:paused" ><linearGradient id="lg-0.17693677147131837" x1="0" x2="1" y1="0" y2="0" style="animation-play-state:paused" ><stop stop-color="#ff00ff" offset="0" style="animation-play-state:paused" ></stop>

  
<stop stop-color="#00ffff" offset="1" style="animation-play-state:paused" ></stop></linearGradient>
<path d="M 0 0 L 0 823.344 Q 122.4 689.968 244.8 660.881 T 489.6 716.324 T 734.4 490.896 T 979.2 477.648 T 1224 324.443 L 1224 0 Z" fill="url(#lg-0.17693677147131837)" opacity="0.4" style="opacity:0.4;animation-play-state:paused" ></path>
<path d="M 0 0 L 0 813.48 Q 122.4 795.178 244.8 762.844 T 489.6 639.704 T 734.4 477.499 T 979.2 399.982 T 1224 436.628 L 1224 0 Z" fill="url(#lg-0.17693677147131837)" opacity="0.4" style="opacity:0.4;animation-play-state:paused" ></path>
<path d="M 0 0 L 0 866.099 Q 122.4 687.482 244.8 663.626 T 489.6 644.284 T 734.4 582.91 T 979.2 425.824 T 1224 324.779 L 1224 0 Z" fill="url(#lg-0.17693677147131837)" opacity="0.4" style="opacity:0.4;animation-play-state:paused" ></path>
<path d="M 0 0 L 0 781.031 Q 122.4 815.656 244.8 787.379 T 489.6 707.326 T 734.4 625.482 T 979.2 519.437 T 1224 463.038 L 1224 0 Z" fill="url(#lg-0.17693677147131837)" opacity="0.4" style="opacity:0.4;animation-play-state:paused" ></path>
<path d="M 0 0 L 0 861.215 Q 122.4 816.208 244.8 790.724 T 489.6 632.132 T 734.4 585.78 T 979.2 425.135 T 1224 372.167 L 1224 0 Z" fill="url(#lg-0.17693677147131837)" opacity="0.4" style="opacity:0.4;animation-play-state:paused" ></path></g></svg>